<svg xmlns="http://www.w3.org/2000/svg" xmlns:svg="http://www.w3.org/2000/svg" id="svg2" width="644.358" height="626.329" version="1.1"><defs id="defs4"><linearGradient id="linearGradient6853"><stop style="stop-color:#00adff;stop-opacity:1" id="stop6855" offset="0"/><stop id="stop6861" offset=".822" style="stop-color:#00adff;stop-opacity:.49803922"/><stop style="stop-color:#000;stop-opacity:0" id="stop6857" offset="1"/></linearGradient><marker id="Arrow1Send" orient="auto" refX="0" refY="0" style="overflow:visible"><path id="path4958" d="M 0,0 5,-5 -12.5,0 5,5 0,0 z" transform="matrix(-0.2,0,0,-0.2,-1.2,0)" style="fill-rule:evenodd;stroke:#000;stroke-width:1pt"/></marker><marker id="Arrow1Sstart" orient="auto" refX="0" refY="0" style="overflow:visible"><path id="path4955" d="M 0,0 5,-5 -12.5,0 5,5 0,0 z" transform="matrix(0.2,0,0,0.2,1.2,0)" style="fill-rule:evenodd;stroke:#000;stroke-width:1pt"/></marker><marker id="Arrow1Mstart" orient="auto" refX="0" refY="0" style="overflow:visible"><path id="path4949" d="M 0,0 5,-5 -12.5,0 5,5 0,0 z" transform="matrix(0.4,0,0,0.4,4,0)" style="fill-rule:evenodd;stroke:#000;stroke-width:1pt"/></marker><marker id="Arrow1Sstart-4" orient="auto" refX="0" refY="0" style="overflow:visible"><path id="path4955-5" d="M 0,0 5,-5 -12.5,0 5,5 0,0 z" transform="matrix(0.2,0,0,0.2,1.2,0)" style="fill-rule:evenodd;stroke:#000;stroke-width:1pt"/></marker><marker id="Arrow1Send-4" orient="auto" refX="0" refY="0" style="overflow:visible"><path id="path4958-6" d="M 0,0 5,-5 -12.5,0 5,5 0,0 z" transform="matrix(-0.2,0,0,-0.2,-1.2,0)" style="fill-rule:evenodd;stroke:#000;stroke-width:1pt"/></marker></defs><metadata id="metadata7"/><g id="layer1" transform="translate(-253.65772,218.97803)"><path style="fill:#00adff;fill-opacity:.75686275;stroke:none" id="path6851" d="M 259.64804,57.193502 792.57928,-142.14719 793.2573,341.96589 259.60777,174.1189 z"/><path style="fill:none;stroke:#000;stroke-width:2.09098315;stroke-linecap:butt;stroke-linejoin:miter;stroke-miterlimit:4;stroke-opacity:1;stroke-dasharray:none" id="path4887" d="m 890.84952,-178.96696 -631.14314,236.973167 0,116.242063 630.29325,197.35579"/><path style="fill:none;stroke:#000;stroke-width:2.09098315;stroke-linecap:butt;stroke-linejoin:miter;stroke-miterlimit:4;stroke-opacity:1;stroke-dasharray:12.5458998,12.5458998;stroke-dashoffset:0" id="path4891" d="m 260.83781,59.275793 630.97079,0"/><path style="fill:none;stroke:#000;stroke-width:2.09098315;stroke-linecap:butt;stroke-linejoin:miter;stroke-miterlimit:4;stroke-opacity:1;stroke-dasharray:12.5458998,12.5458998;stroke-dashoffset:0" id="path4891-7" d="m 260.99944,172.08634 630.97079,0"/><path style="fill:none;stroke:#000;stroke-width:2.09098315;stroke-linecap:butt;stroke-linejoin:miter;stroke-miterlimit:4;stroke-opacity:1;stroke-dasharray:8.3639332,8.3639332;stroke-dashoffset:0" id="path4911" d="m 793.23579,-189.85001 0,591.15535"/><path style="fill:none;stroke:#000;stroke-width:.69999999;stroke-miterlimit:4;stroke-opacity:1;stroke-dasharray:none;stroke-dashoffset:0" id="path4915" d="m 277.40703,204.94983 a 18.943148,18.943148 0 0 1 1.28197,6.81725" transform="matrix(2.987119,0,0,2.987119,-515.9493,-573.75675)"/><path style="fill:none;stroke:#000;stroke-width:.69999999;stroke-miterlimit:4;stroke-opacity:1;stroke-dasharray:none;stroke-dashoffset:0" id="path4915-5" d="m 278.67886,211.17971 a 18.943148,18.943148 0 0 1 -0.8432,6.24205" transform="matrix(2.987119,0,0,2.987119,-517.22894,-458.90756)"/><path style="fill:#000;fill-opacity:1;stroke:none" id="path4935" d="m 283.06309,227.78796 a 1.00761,1.00761 0 1 1 -2.01522,0 1.00761,1.00761 0 1 1 2.01522,0 z" transform="matrix(2.987119,0,0,2.987119,-525.77343,-564.0127)"/><path style="fill:none;stroke:#000;stroke-width:2.09098315;stroke-linecap:butt;stroke-linejoin:miter;stroke-miterlimit:4;stroke-opacity:1;stroke-dasharray:none;marker-start:url(#Arrow1Sstart);marker-end:url(#Arrow1Send)" id="path4937" d="m 317.09757,65.254063 0,42.548767"/><path style="fill:none;stroke:#000;stroke-width:2.09098315;stroke-linecap:butt;stroke-linejoin:miter;stroke-miterlimit:4;stroke-opacity:1;stroke-dasharray:none;marker-start:url(#Arrow1Sstart);marker-end:url(#Arrow1Send)" id="path4937-9" d="m 308.28828,116.39919 -42.54876,0"/><text style="font-size:29.87118912px;font-style:normal;font-weight:700;line-height:125%;letter-spacing:0;word-spacing:0;fill:#000;fill-opacity:1;stroke:none;font-family:Sans;-inkscape-font-specification:Sans Bold" id="text5787" x="321.458" y="92.086" xml:space="preserve"><tspan id="tspan5789" x="321.458" y="92.086" style="font-size:11.94847584px">maxDeviation</tspan></text><text style="font-size:29.87118912px;font-style:normal;font-weight:700;line-height:125%;letter-spacing:0;word-spacing:0;fill:#000;fill-opacity:1;stroke:none;font-family:Sans;-inkscape-font-specification:Sans Bold" id="text5787-2" x="322.993" y="48.588" xml:space="preserve"><tspan id="tspan5789-5" x="322.993" y="48.588" style="font-size:11.94847584px">wideningAngle</tspan></text><path id="path5830" d="m 315.70321,-189.85001 0,225.307165" style="fill:none;stroke:#000;stroke-width:2.09098315;stroke-linecap:butt;stroke-linejoin:miter;stroke-miterlimit:4;stroke-opacity:1;stroke-dasharray:8.3639332,8.3639332;stroke-dashoffset:0"/><path style="fill:none;stroke:#000;stroke-width:2.09098315;stroke-linecap:butt;stroke-linejoin:miter;stroke-miterlimit:4;stroke-opacity:1;stroke-dasharray:none" id="path5832" d="m 315.79005,-204.37393 476.77774,0"/><path style="fill:none;stroke:#000;stroke-width:2.09098315;stroke-linecap:butt;stroke-linejoin:miter;stroke-miterlimit:4;stroke-opacity:1;stroke-dasharray:none" id="path6839" d="m 315.303,-212.93254 0,17.24097"/><path id="path6841" d="m 792.91626,-212.93254 0,17.24097" style="fill:none;stroke:#000;stroke-width:2.09098315;stroke-linecap:butt;stroke-linejoin:miter;stroke-miterlimit:4;stroke-opacity:1;stroke-dasharray:none"/><text id="text6843" x="483.686" y="-188.722" xml:space="preserve" style="font-size:29.87118912px;font-style:normal;font-weight:700;line-height:125%;letter-spacing:0;word-spacing:0;fill:#000;fill-opacity:1;stroke:none;font-family:Sans;-inkscape-font-specification:Sans Bold"><tspan style="font-size:11.94847584px" id="tspan6845" x="483.686" y="-188.722">distanceThreshold</tspan></text><text id="text6847" x="321.458" y="121.957" xml:space="preserve" style="font-size:29.87118912px;font-style:normal;font-weight:700;line-height:125%;letter-spacing:0;word-spacing:0;fill:#000;fill-opacity:1;stroke:none;font-family:Sans;-inkscape-font-specification:Sans Bold"><tspan style="font-size:11.94847584px" id="tspan6849" x="321.458" y="121.957">Position of touch press</tspan></text><rect style="fill:#00adff;fill-opacity:.75686275;stroke:none" id="rect6863" width="35.258" height="35.936" x="295.584" y="318.913"/><text style="font-size:29.87118912px;font-style:normal;font-weight:700;line-height:125%;letter-spacing:0;word-spacing:0;fill:#000;fill-opacity:1;stroke:none;font-family:Sans;-inkscape-font-specification:Sans Bold" id="text6865" x="335.019" y="340.96" xml:space="preserve"><tspan id="tspan6867" x="335.019" y="340.96" style="font-size:11.94847584px">Valid area for touch position during recognition</tspan></text></g></svg>