<svg xmlns="http://www.w3.org/2000/svg" xmlns:svg="http://www.w3.org/2000/svg" xmlns:xlink="http://www.w3.org/1999/xlink" style="enable-background:new" id="svg3336" width="512" height="512" version="1.1" viewBox="0 0 512 512"><defs id="defs3338"><linearGradient id="linearGradient4203"><stop style="stop-color:#ea5420;stop-opacity:1" id="stop4205" offset="0"/><stop style="stop-color:#f37e40;stop-opacity:1" id="stop4207" offset="1"/></linearGradient><clipPath id="clipPath4755" clipPathUnits="userSpaceOnUse"><path style="color:#000;display:inline;overflow:visible;visibility:visible;opacity:.24899998;fill:#5e2c73;fill-opacity:1;fill-rule:nonzero;stroke:none;stroke-width:5;stroke-linecap:butt;stroke-linejoin:miter;stroke-miterlimit:4;stroke-dasharray:none;stroke-dashoffset:0;stroke-opacity:1;marker:none;enable-background:accumulate" id="path4757" d="M 360,50 594,284 V 215.89844 C 594,70.73665 573.2426,50 427.94531,50 Z"/></clipPath><clipPath id="clipPath4767" clipPathUnits="userSpaceOnUse"><path style="color:#000;display:inline;overflow:visible;visibility:visible;opacity:1;fill:#f6f6f6;fill-opacity:1;fill-rule:nonzero;stroke:none;stroke-width:5;stroke-linecap:butt;stroke-linejoin:miter;stroke-miterlimit:4;stroke-dasharray:none;stroke-dashoffset:0;stroke-opacity:1;marker:none;enable-background:accumulate" id="path4769" d="M 543.8125,454.1875 312.18945,685.81055 367.94531,681 C 512.70468,668.50896 526.55393,654.72881 539,510.10156 Z"/></clipPath><linearGradient id="linearGradient4209" x1="167.5" x2="343.25" y1="17.25" y2="491" gradientUnits="userSpaceOnUse" xlink:href="#linearGradient4203"/><filter style="color-interpolation-filters:sRGB" id="filter4220" width="1.024" height="1.024" x="-.012" y="-.012"><feGaussianBlur id="feGaussianBlur4222" stdDeviation="1.439"/></filter><linearGradient id="linearGradient4232" x1="256" x2="405.358" y1="-256" y2="-256" gradientUnits="userSpaceOnUse" spreadMethod="reflect" xlink:href="#linearGradient4226"/><linearGradient id="linearGradient4226"><stop style="stop-color:#a73812;stop-opacity:1" id="stop4228" offset="0"/><stop style="stop-color:#973310;stop-opacity:0" id="stop4230" offset="1"/></linearGradient><filter style="color-interpolation-filters:sRGB" id="filter4234" width="1.192" height="1.192" x="-.096" y="-.096"><feGaussianBlur id="feGaussianBlur4236" stdDeviation="11.512"/></filter></defs><metadata id="metadata3341"/><g id="layer3"><path style="color:#000;display:inline;overflow:visible;visibility:visible;fill:url(#linearGradient4209);fill-opacity:1;fill-rule:nonzero;stroke:none;stroke-width:1;marker:none;enable-background:accumulate" id="rect4158" d="M 0 0 L 0 183.89844 L 0 328.10156 L 0 512 L 512 512 L 512 328.10156 L 512 183.89844 L 512 0 L 0 0 z"/><path style="color:#000;display:inline;overflow:visible;visibility:visible;opacity:.1;fill:#fff;fill-opacity:1;fill-rule:nonzero;stroke:none;stroke-width:8;stroke-linecap:butt;stroke-linejoin:miter;stroke-miterlimit:4;stroke-dasharray:none;stroke-dashoffset:0;stroke-opacity:1;marker:none;enable-background:accumulate" id="rect4286" d="M 0 256 L 0 328.10156 L 0 462.53516 C 0 479.69677 0.052846476 496.03174 0.13085938 512 L 511.86914 512 C 511.94715 496.03174 512 479.69677 512 462.53516 L 512 256 L 0 256 z"/></g><g id="layer1" transform="translate(-32,-32)" style="display:inline"><circle style="color:#000;display:inline;overflow:visible;visibility:visible;opacity:.4;fill:#d04616;fill-opacity:1;fill-rule:nonzero;stroke:none;stroke-width:7.99999952;stroke-linecap:square;stroke-linejoin:miter;stroke-miterlimit:4;stroke-dasharray:none;stroke-dashoffset:0;stroke-opacity:1;marker:none;filter:url(#filter4220);enable-background:accumulate" id="circle4218" cx="258" cy="-256" r="143.904" transform="rotate(90,-7.1132638e-7,31.999996)"/><circle id="circle4224" cx="258" cy="-256" r="143.904" transform="rotate(90,-7.1132638e-7,31.999996)" style="color:#000;display:inline;overflow:visible;visibility:visible;opacity:1;fill:url(#linearGradient4232);fill-opacity:1;fill-rule:nonzero;stroke:none;stroke-width:7.99999952;stroke-linecap:square;stroke-linejoin:miter;stroke-miterlimit:4;stroke-dasharray:none;stroke-dashoffset:0;stroke-opacity:1;marker:none;filter:url(#filter4234);enable-background:accumulate"/><circle id="circle4206" cx="288" cy="-288" r="143.904" transform="rotate(90)" style="color:#000;display:inline;overflow:visible;visibility:visible;opacity:1;fill:#fff;fill-opacity:1;fill-rule:nonzero;stroke:none;stroke-width:7.99999952;stroke-linecap:square;stroke-linejoin:miter;stroke-miterlimit:4;stroke-dasharray:none;stroke-dashoffset:0;stroke-opacity:1;marker:none;enable-background:accumulate"/><path style="display:inline;fill:#ea5420;fill-opacity:1;stroke-width:2.9398191;enable-background:new" id="path4258" d="m 193.9963,269.54024 c -10.19878,0 -18.46137,8.2634 -18.46137,18.46139 0,10.19309 8.26259,18.45568 18.46137,18.45568 10.19311,0 18.45569,-8.26259 18.45569,-18.45568 0,-10.19799 -8.26258,-18.46139 -18.45569,-18.46139 z m 131.78525,83.88906 c -8.82832,5.09898 -11.85536,16.38129 -6.75557,25.20475 5.0933,8.82834 16.37561,11.85455 25.20393,6.75556 8.82752,-5.0933 11.85457,-16.37561 6.75559,-25.20475 -5.0933,-8.82263 -16.38212,-11.84887 -25.20395,-6.75556 z m -91.69319,-65.42767 c 0,-18.24028 9.05999,-34.35498 22.92309,-44.11321 l -13.49406,-22.6012 c -16.14883,10.79461 -28.16435,27.28971 -33.15766,46.60863 5.82648,4.75434 9.55584,11.99194 9.55584,20.10497 0,8.10813 -3.72936,15.34572 -9.55584,20.10006 4.98681,19.32463 17.00232,35.82055 33.15766,46.61514 l 13.49406,-22.60689 c -13.8631,-9.75253 -22.92309,-25.86641 -22.92309,-44.1075 z m 53.91207,-53.91776 c 28.16514,0 51.27274,21.59491 53.69828,49.13495 l 26.30048,-0.38772 c -1.29405,-20.33173 -10.17604,-38.58421 -23.82372,-52.00594 -7.01814,2.65149 -15.12464,2.2459 -22.13139,-1.79314 -7.01894,-4.0504 -11.41969,-10.88319 -12.62271,-18.30044 -6.8214,-1.88254 -14.00046,-2.91323 -21.42257,-2.91323 -12.75925,0 -24.82271,2.99695 -35.53359,8.29836 l 12.82509,22.98243 c 6.89944,-3.21075 14.5963,-5.01526 22.71013,-5.01526 z m 0,107.82982 c -8.11383,0 -15.81069,-1.80533 -22.70931,-5.01528 l -12.82511,22.98163 c 10.71088,5.3079 22.77434,8.30568 35.53442,8.30568 7.42211,0 14.60118,-1.0315 21.42177,-2.91975 1.20301,-7.41724 5.60537,-14.24352 12.6227,-18.30125 7.01161,-4.04555 15.11326,-4.44382 22.13137,-1.79232 13.64769,-13.42174 22.52968,-31.67421 23.82372,-52.00595 l -26.30696,-0.38772 c -2.41986,27.54738 -25.52665,49.13496 -53.6926,49.13496 z m 37.77461,-119.35113 c 8.82834,5.09818 20.11145,2.07845 25.20475,-6.74987 5.099,-8.82833 2.07928,-20.11145 -6.74988,-25.21126 -8.82832,-5.0933 -20.11063,-2.06705 -25.21125,6.76127 -5.09247,8.82345 -2.06625,20.10657 6.75638,25.19986 z"/></g></svg>