<svg xmlns="http://www.w3.org/2000/svg" xmlns:svg="http://www.w3.org/2000/svg" id="svg4874" width="162" height="230" version="1.1" viewBox="0 0 162 230" style="shape-rendering:crispEdges"><metadata id="metadata4879"/><g id="layer1" transform="translate(67.857143,55.494966)"><g id="g4845" transform="matrix(0,-1,-1,0,373.50506,516.50504)" style="display:inline"><g id="g4778" transform="matrix(-0.9996045,0,0,1,575.94296,-611.00001)"><g id="g4780" transform="matrix(-1,0,0,1,575.99999,611)" style="display:inline"><path style="font-style:normal;font-variant:normal;font-weight:400;font-stretch:normal;font-size:53.6204567px;line-height:125%;font-family:Ubuntu;-inkscape-font-specification:Ubuntu;text-align:end;letter-spacing:0;word-spacing:0;writing-mode:lr-tb;text-anchor:end;display:inline;fill:none;fill-opacity:1;stroke:#f7f7f7;stroke-width:4.00079107;stroke-miterlimit:4;stroke-dasharray:none" id="path4845-6" d="m 526.90578,343.72628 c 14.3803,3.85163 8.37809,26.10701 -5.96811,22.26448 l -10e-6,10e-6 -50.91437,-13.63709 67.92084,18.21108 c 15.93089,4.26693 9.28148,28.92202 -6.61162,24.66516 l -10e-6,1e-5 -67.93497,-18.15834 58.38757,15.63874 c 15.85637,4.24702 9.23761,28.78845 -6.58115,24.5515 v -2e-5 l 1e-5,-2e-5 -71.03537,-19.00646 -33.09607,-8.85524 -0.18781,-0.0503 v 0 l -6.91408,-1.85189 18.07353,23.47068 c 8.45364,10.48525 11.9521,17.66446 -3.54852,27.89697 l -43.91145,-37.31132 c -28.38683,-22.97811 -35.17793,-41.86133 -27.95127,-70.42985 10.25002,-40.5206 40.5632,-49.89857 76.24862,-40.34047 4.5224,1.21129 36.24839,9.63672 40.29164,10.71968 14.0412,3.76084 12.54552,13.74563 6.76936,26.96549 z"/><path style="color:#000;font-style:normal;font-variant:normal;font-weight:400;font-stretch:normal;font-size:medium;line-height:normal;font-family:sans-serif;font-variant-ligatures:normal;font-variant-position:normal;font-variant-caps:normal;font-variant-numeric:normal;font-variant-alternates:normal;font-feature-settings:normal;text-indent:0;text-align:start;text-decoration:none;text-decoration-line:none;text-decoration-style:solid;text-decoration-color:#000;letter-spacing:normal;word-spacing:normal;text-transform:none;writing-mode:lr-tb;direction:ltr;text-orientation:mixed;dominant-baseline:auto;baseline-shift:baseline;text-anchor:start;white-space:normal;shape-padding:0;clip-rule:nonzero;display:inline;overflow:visible;visibility:visible;opacity:.5;isolation:auto;mix-blend-mode:normal;color-interpolation:sRGB;color-interpolation-filters:linearRGB;solid-color:#000;solid-opacity:1;fill:#f7f7f7;fill-opacity:1;fill-rule:nonzero;stroke:none;stroke-width:3.99999976;stroke-linecap:butt;stroke-linejoin:miter;stroke-miterlimit:4;stroke-dasharray:none;stroke-dashoffset:0;stroke-opacity:1;marker:none;color-rendering:auto;image-rendering:auto;shape-rendering:auto;text-rendering:auto;enable-background:accumulate" id="ellipse4488" d="m 571.45563,383.2743 c -0.0175,12.04505 -6.22338,23.19765 -16.35804,29.64062 -3.3052,16.24493 -17.57029,28.04101 -34.23815,28.04493 -18.13447,4.3e-4 -33.08059,-13.83538 -34.83995,-31.50586 l 4.16766,1.11523 c 2.22233,14.95164 15.08799,26.39099 30.67229,26.39063 15.06147,-0.004 27.92054,-10.79228 30.53552,-25.61915 l 0.15631,-0.89648 0.78156,-0.46875 c 9.37156,-5.64255 15.10396,-15.76543 15.12121,-26.70117 v -0.004 c -0.0108,-9.30873 -4.17362,-18.12357 -11.35605,-24.04883 l -0.8265,-0.68359 0.10942,-1.06641 c 0.10013,-0.96319 0.1562,-1.9301 0.16608,-2.89843 -0.004,-17.20453 -13.91519,-31.10752 -31.12755,-31.10743 -10.37812,-5e-5 -19.55027,5.05891 -25.20333,12.84375 l -4.0856,-1.09375 c 6.29481,-9.48451 17.06827,-15.75006 29.28893,-15.75 19.37764,-1e-4 35.12924,15.74527 35.12913,35.11524 v 0.01 0.01 c -0.008,0.77822 -0.0716,1.55426 -0.13091,2.33008 7.57765,6.66645 12.02745,16.21382 12.03797,26.33984 v 0.002 z m -74.3634,2.80273 c -0.004,0.005 -0.008,0.0106 -0.0117,0.0156 l -4.15595,-1.11328 c 0.003,-0.004 0.006,-0.009 0.01,-0.0137 z m -3.51507,-27.4082 -4.14421,-1.10938 c -1.8e-4,-0.002 1.7e-4,-0.004 0,-0.006 l 4.14226,1.10937 c 2.7e-4,0.002 0.002,0.004 0.002,0.006 z"/></g></g></g></g></svg>