<svg xmlns="http://www.w3.org/2000/svg" xmlns:svg="http://www.w3.org/2000/svg" id="svg4874" width="540" height="324" version="1.1" viewBox="0 0 540 324"><metadata id="metadata4879"/><g id="layer1" transform="translate(67.857143,149.49498)"><g id="g4845" transform="matrix(0,-1,-1,0,373.50506,516.50504)" style="display:inline"><g id="g4778" transform="matrix(-0.9996045,0,0,1,575.94296,-611.00001)"><g id="g4780" transform="matrix(-1,0,0,1,575.99999,611)" style="display:inline"><path style="font-style:normal;font-variant:normal;font-weight:400;font-stretch:normal;font-size:53.6204567px;line-height:125%;font-family:Ubuntu;-inkscape-font-specification:Ubuntu;text-align:end;letter-spacing:0;word-spacing:0;writing-mode:lr-tb;text-anchor:end;display:inline;fill:none;fill-opacity:1;stroke:#f7f7f7;stroke-width:4.00079107;stroke-miterlimit:4;stroke-dasharray:none" id="path4845-6" d="m 526.90578,343.72628 c 14.3803,3.85163 8.37809,26.10701 -5.96811,22.26448 l -10e-6,10e-6 -50.91437,-13.63709 67.92084,18.21108 c 15.93089,4.26693 9.28148,28.92202 -6.61162,24.66516 l -10e-6,1e-5 -67.93497,-18.15834 58.38757,15.63874 c 15.85637,4.24702 9.23761,28.78845 -6.58115,24.5515 v -2e-5 l 1e-5,-2e-5 -71.03537,-19.00646 -33.09607,-8.85524 -0.18781,-0.0503 v 0 l -6.91408,-1.85189 18.07353,23.47068 c 8.45364,10.48525 11.9521,17.66446 -3.54852,27.89697 l -43.91145,-37.31132 c -28.38683,-22.97811 -35.17793,-41.86133 -27.95127,-70.42985 10.25002,-40.5206 40.5632,-49.89857 76.24862,-40.34047 4.5224,1.21129 36.24839,9.63672 40.29164,10.71968 14.0412,3.76084 12.54552,13.74563 6.76936,26.96549 z"/><path style="color:#000;display:inline;overflow:visible;visibility:visible;opacity:.25;fill:#f7f7f7;fill-opacity:1;fill-rule:nonzero;stroke:none;stroke-width:2.51758671;stroke-linecap:butt;stroke-linejoin:miter;stroke-miterlimit:4;stroke-dasharray:none;stroke-dashoffset:0;stroke-opacity:1;marker:none;enable-background:accumulate" id="ellipse4239-1" d="m 571.27587,383.27233 a 35.064884,35.05101 0 0 1 -16.02978,29.39649 35.064884,35.05101 0 0 1 -34.38665,28.3418 35.064884,35.05101 0 0 1 -34.85362,-31.56055 l 29.19904,7.8125 c 15.81876,4.23695 22.4371,-20.30571 6.58073,-24.55274 l -28.91769,-7.74609 a 35.064884,35.05101 0 0 1 0.01,-0.0137 l 38.45466,10.2793 c 15.8931,4.25686 22.54288,-20.39714 6.61199,-24.66407 l -48.41758,-12.98242 a 35.064884,35.05101 0 0 1 0,-0.006 l 31.41086,8.41407 c 14.3462,3.84253 20.34945,-18.414 5.96915,-22.26563 l -31.70199,-8.49023 a 35.064884,35.05101 0 0 1 29.21468,-15.70704 35.064884,35.05101 0 0 1 35.06465,35.05274 35.064884,35.05101 0 0 1 -0.0879,2.45312 35.064884,35.05101 0 0 1 11.8797,26.23828 z"/><g style="display:inline" id="g5379" transform="matrix(-0.99999722,0,0,-0.99999722,645.25394,919.46958)"><path style="color:#000;display:inline;overflow:visible;visibility:visible;fill:none;stroke:#f7f7f7;stroke-width:4.00079107;stroke-linecap:butt;stroke-linejoin:round;stroke-miterlimit:4;stroke-dasharray:none;stroke-dashoffset:0;stroke-opacity:1;marker:none;enable-background:accumulate" id="path4116" d="M 611.43997,82.485822 A 250.36082,263.63275 0 0 1 809.81939,-18.835885 250.36082,263.63275 0 0 1 1007.3516,84.304899" transform="matrix(0,1,1,0,0,0)"/><path id="path4198" d="m 73.559638,1014.0226 14.78221,-18.91287 c 0,0 6.80763,12.50667 9.95238,23.00047 -10.9469,-0.5114 -24.73459,-4.0876 -24.73459,-4.0876 z" style="color:#000;display:inline;overflow:visible;visibility:visible;opacity:1;fill:#f7f7f7;fill-opacity:1;fill-rule:nonzero;stroke:none;stroke-width:3.00059342;marker:none;enable-background:accumulate"/></g></g></g></g></g></svg>