<svg xmlns="http://www.w3.org/2000/svg" xmlns:svg="http://www.w3.org/2000/svg" id="svg4171" width="56" height="56" version="1.1" viewBox="0 0 14.817 14.817"><metadata id="metadata4176"/><g id="layer1" transform="translate(-134.71071,-3.8416665)"><path style="color:#000;display:inline;overflow:visible;visibility:visible;opacity:1;fill:#dd4814;fill-opacity:1;fill-rule:nonzero;stroke:none;stroke-width:16.93333244;stroke-linecap:butt;stroke-linejoin:miter;stroke-miterlimit:4;stroke-dasharray:none;stroke-dashoffset:0;stroke-opacity:1;marker:none;enable-background:accumulate" id="path4141" d="M 142.11905,3.8416665 A 7.4083333,7.4083333 0 0 0 134.71071,11.25 7.4083333,7.4083333 0 0 0 142.11905,18.658334 7.4083333,7.4083333 0 0 0 149.52738,11.25 7.4083333,7.4083333 0 0 0 142.11905,3.8416665 Z"/><path style="color:#000;display:inline;overflow:visible;visibility:visible;opacity:1;fill:#fff;fill-opacity:1;fill-rule:nonzero;stroke:none;stroke-width:16.93333244;stroke-linecap:butt;stroke-linejoin:miter;stroke-miterlimit:4;stroke-dasharray:none;stroke-dashoffset:0;stroke-opacity:1;marker:none;enable-background:accumulate" id="path4170" d="m 139.31818,7.7008631 2.80087,2.8008629 2.80086,-2.8008629 0.74827,0.7482734 -2.80086,2.8008635 2.80086,2.800864 -0.74827,0.748273 -2.80086,-2.800864 -2.80087,2.800864 -0.74827,-0.748273 2.80086,-2.800864 -2.80086,-2.8008635 0.74827,-0.7482734 z"/></g></svg>